<?xml version="1.0" ?><svg height="104.31625mm" id="svg5428" version="1.1" viewBox="0 0 369.62501 369.6245" width="104.31639mm" xmlns="http://www.w3.org/2000/svg" xmlns:cc="http://creativecommons.org/ns#" xmlns:dc="http://purl.org/dc/elements/1.1/" xmlns:inkscape="http://www.inkscape.org/namespaces/inkscape" xmlns:rdf="http://www.w3.org/1999/02/22-rdf-syntax-ns#" xmlns:sodipodi="http://sodipodi.sourceforge.net/DTD/sodipodi-0.dtd" xmlns:svg="http://www.w3.org/2000/svg"><defs id="defs5430"/><g id="layer1" transform="translate(-186.74089,-309.34772)"><path d="m 465.42174,392.94702 c -0.63554,-0.52231 -1.60038,-0.4739 -2.16365,0.10854 l -258.75698,267.5684 c -0.17932,0.18541 -0.28781,0.4031 -0.34258,0.62899 l -0.25701,0.26098 -17.16063,17.45829 15.4125,-2.60073 15.41007,-2.60062 0.10519,-0.88762 c 0.43595,0.0121 0.87223,-0.13975 1.1854,-0.4636 L 477.611,404.85127 c 0.56327,-0.58247 0.50511,-1.47161 -0.13044,-1.99392 l -12.05882,-9.91033 z" id="rect5982" style="opacity:1;fill:#e6e6e6;fill-opacity:1;stroke:none;stroke-opacity:1"/><rect height="123.96291" id="rect5978" ry="5.9073067" style="opacity:1;fill:#000000;fill-opacity:1;stroke:none;stroke-opacity:1" transform="matrix(0.73753515,0.67530875,-0.68753523,0.72615102,0,0)" width="16.170021" x="608.24097" y="-142.97076"/><path d="m 468.29136,403.49699 c -0.32517,-0.23501 -1.02366,0.0244 -1.5661,0.58149 l -249.1968,255.92531 c -0.17258,0.17746 -0.3029,0.36184 -0.39674,0.53996 l -0.24608,0.25097 -16.4243,15.88854 11.47016,-1.98254 5.53866,-1.20064 7.06603,-7.30327 c 1.32775,-0.47561 0.40856,-0.43882 0.7102,-0.74863 L 474.07177,409.38402 c 0.54234,-0.55722 0.71722,-1.19453 0.39195,-1.42946 l -6.17207,-4.45728 z" id="path11367" style="opacity:1;fill:#cccccc;fill-opacity:1;stroke:none;stroke-opacity:1"/><rect height="9.7295961" id="rect5980" ry="1.4423629" style="opacity:1;fill:#d4aa00;fill-opacity:1;stroke:none;stroke-opacity:1" transform="matrix(0.71858851,0.69543552,-0.70056837,0.71358528,0,0)" width="45.955238" x="592.64178" y="-41.543732"/><path d="m 542.74451,322.71235 a 6.8360223,4.0779971 40.191843 0 0 -5.23504,-2.29115 6.8360223,4.0779971 40.191843 0 0 3.05541,4.54298 6.8360223,4.0779971 40.191843 0 0 5.23484,2.29139 6.8360223,4.0779971 40.191843 0 0 -3.05521,-4.54322 z" id="path11396" style="opacity:1;fill:#ffcc00;fill-opacity:1;stroke:none;stroke-opacity:1"/><path d="m 528.62697,337.70071 a 6.8360223,4.0779971 40.191843 0 0 -5.23505,-2.29115 6.8360223,4.0779971 40.191843 0 0 3.05542,4.54298 6.8360223,4.0779971 40.191843 0 0 5.23483,2.29139 6.8360223,4.0779971 40.191843 0 0 -3.0552,-4.54322 z" id="path11401" style="opacity:1;fill:#ffcc00;fill-opacity:1;stroke:none;stroke-opacity:1"/><path d="m 513.99864,352.92035 a 6.8360223,4.0779971 40.191843 0 0 -5.23506,-2.29115 6.8360223,4.0779971 40.191843 0 0 3.05542,4.54298 6.8360223,4.0779971 40.191843 0 0 5.23483,2.29139 6.8360223,4.0779971 40.191843 0 0 -3.05519,-4.54322 z" id="path11403" style="opacity:1;fill:#ffcc00;fill-opacity:1;stroke:none;stroke-opacity:1"/><path d="m 500.15976,367.16851 a 6.8360223,4.0779971 40.191843 0 0 -5.23504,-2.29115 6.8360223,4.0779971 40.191843 0 0 3.05542,4.54297 6.8360223,4.0779971 40.191843 0 0 5.23484,2.2914 6.8360223,4.0779971 40.191843 0 0 -3.05522,-4.54322 z" id="path11405" style="opacity:1;fill:#ffcc00;fill-opacity:1;stroke:none;stroke-opacity:1"/><path d="m 485.76355,382.89708 a 6.8360223,4.0779971 40.191843 0 0 -5.23505,-2.29115 6.8360223,4.0779971 40.191843 0 0 3.05542,4.54297 6.8360223,4.0779971 40.191843 0 0 5.23483,2.2914 6.8360223,4.0779971 40.191843 0 0 -3.0552,-4.54322 z" id="path11407" style="opacity:1;fill:#ffcc00;fill-opacity:1;stroke:none;stroke-opacity:1"/></g></svg>